<svg width="84" height="19" viewBox="0 0 84 19" fill="none" xmlns="http://www.w3.org/2000/svg">
<path d="M8.67806 2.78117C8.98566 1.87747 10.2638 1.87748 10.5714 2.78117L11.5549 5.67063C11.6929 6.0759 12.0735 6.34841 12.5016 6.34841H15.5818C16.5617 6.34841 16.9569 7.61166 16.1517 8.17013L13.7409 9.84206C13.3741 10.0965 13.2203 10.5633 13.3642 10.986L14.3036 13.7461C14.6145 14.6593 13.5798 15.4398 12.7871 14.89L10.1946 13.0921C9.85187 12.8543 9.39758 12.8543 9.05483 13.0921L6.46235 14.89C5.66969 15.4398 4.63496 14.6593 4.9458 13.7461L5.88528 10.986C6.02915 10.5633 5.87539 10.0965 5.50851 9.84206L3.09777 8.17013C2.29254 7.61166 2.68772 6.34841 3.66767 6.34841H6.74788C7.17598 6.34841 7.55659 6.0759 7.69454 5.67063L8.67806 2.78117Z" fill="#FFA858"/>
<path d="M24.8607 2.92714C25.1601 2.00582 26.4635 2.00582 26.7628 2.92714L27.6499 5.65742C27.7838 6.06944 28.1678 6.34841 28.601 6.34841H31.4717C32.4405 6.34841 32.8432 7.58801 32.0595 8.15742L29.737 9.84489C29.3865 10.0995 29.2399 10.5509 29.3737 10.9629L30.2609 13.6933C30.5602 14.6146 29.5057 15.3807 28.722 14.8113L26.3996 13.1239C26.0491 12.8692 25.5745 12.8692 25.224 13.1239L22.9015 14.8113C22.1178 15.3807 21.0634 14.6146 21.3627 13.6933L22.2498 10.9629C22.3837 10.5509 22.237 10.0995 21.8866 9.84489L19.564 8.15741C18.7803 7.58801 19.1831 6.34841 20.1518 6.34841H23.0226C23.4558 6.34841 23.8398 6.06944 23.9736 5.65742L24.8607 2.92714Z" fill="#FFA858"/>
<path d="M41.0521 2.78117C41.3597 1.87747 42.6379 1.87748 42.9455 2.78117L43.929 5.67063C44.0669 6.0759 44.4475 6.34841 44.8757 6.34841H47.9559C48.9358 6.34841 49.331 7.61166 48.5258 8.17013L46.115 9.84206C45.7481 10.0965 45.5944 10.5633 45.7382 10.986L46.6777 13.7461C46.9886 14.6593 45.9538 15.4398 45.1612 14.89L42.5687 13.0921C42.226 12.8543 41.7717 12.8543 41.4289 13.0921L38.8364 14.89C38.0438 15.4398 37.009 14.6593 37.3199 13.7461L38.2594 10.986C38.4032 10.5633 38.2495 10.0965 37.8826 9.84206L35.4719 8.17013C34.6666 7.61166 35.0618 6.34841 36.0417 6.34841H39.122C39.5501 6.34841 39.9307 6.0759 40.0686 5.67063L41.0521 2.78117Z" fill="#FFA858"/>
<path d="M57.2348 2.92714C57.5341 2.00582 58.8375 2.00582 59.1369 2.92714L60.024 5.65742C60.1579 6.06944 60.5418 6.34841 60.975 6.34841H63.8458C64.8145 6.34841 65.2173 7.58801 64.4336 8.15742L62.1111 9.84489C61.7606 10.0995 61.6139 10.5509 61.7478 10.9629L62.6349 13.6933C62.9343 14.6146 61.8798 15.3807 61.0961 14.8113L58.7736 13.1239C58.4231 12.8692 57.9485 12.8692 57.598 13.1239L55.2756 14.8113C54.4919 15.3807 53.4374 14.6146 53.7367 13.6933L54.6239 10.9629C54.7577 10.5509 54.6111 10.0995 54.2606 9.84489L51.9381 8.15741C51.1544 7.58801 51.5571 6.34841 52.5259 6.34841H55.3966C55.8298 6.34841 56.2138 6.06944 56.3477 5.65742L57.2348 2.92714Z" fill="#FFA858"/>
<path d="M73.4262 2.78117C73.7338 1.87747 75.012 1.87748 75.3196 2.78117L76.3031 5.67063C76.441 6.0759 76.8216 6.34841 77.2497 6.34841H80.3299C81.3099 6.34841 81.7051 7.61166 80.8998 8.17013L78.4891 9.84206C78.1222 10.0965 77.9685 10.5633 78.1123 10.986L79.0518 13.7461C79.3626 14.6593 78.3279 15.4398 77.5353 14.89L74.9428 13.0921C74.6 12.8543 74.1457 12.8543 73.803 13.0921L71.2105 14.89C70.4179 15.4398 69.3831 14.6593 69.694 13.7461L70.6334 10.986C70.7773 10.5633 70.6236 10.0965 70.2567 9.84206L67.8459 8.17013C67.0407 7.61166 67.4359 6.34841 68.4158 6.34841H71.496C71.9241 6.34841 72.3048 6.0759 72.4427 5.67063L73.4262 2.78117Z" fill="#FFA858"/>
</svg>
